<svg width="20" height="21" viewBox="0 0 20 21" fill="none" xmlns="http://www.w3.org/2000/svg">
<path fill-rule="evenodd" clip-rule="evenodd" d="M12.5042 0C11.9731 0 11.5425 0.430589 11.5425 0.961723H7.69514C7.69514 0.430589 7.26455 0 6.73342 0H4.80952C4.27838 0 3.8478 0.430589 3.8478 0.961723H2.88607C1.29177 0.961723 0 2.25394 0 3.84734V17.3137C0 18.9076 1.29177 20.1993 2.88562 20.1993H16.352C17.9459 20.1993 19.2376 18.9076 19.2376 17.3137V3.84734C19.2376 2.25349 17.9459 0.961723 16.352 0.961723H15.3903C15.3903 0.430589 14.9597 0 14.4286 0H12.5047H12.5042ZM2.88562 2.88562C2.35449 2.88562 1.9239 3.31621 1.9239 3.84734V4.80907H17.3137V3.84734C17.3137 3.31621 16.8831 2.88562 16.352 2.88562H2.88562ZM4.32843 8.65686C3.7973 8.65686 3.36671 9.08745 3.36671 9.61859V10.5803C3.36671 11.1114 3.7973 11.542 4.32843 11.542H5.29015C5.82129 11.542 6.25188 11.1114 6.25188 10.5803V9.61859C6.25188 9.08745 5.82129 8.65686 5.29015 8.65686H4.32843ZM8.17578 9.61859C8.17578 9.08745 8.60637 8.65686 9.1375 8.65686H10.0992C10.6304 8.65686 11.0609 9.08745 11.0609 9.61859V10.5803C11.0609 11.1114 10.6304 11.542 10.0992 11.542H9.1375C8.60637 11.542 8.17578 11.1114 8.17578 10.5803V9.61859ZM13.947 8.65686C13.4159 8.65686 12.9853 9.08745 12.9853 9.61859V10.5803C12.9853 11.1114 13.4159 11.542 13.947 11.542H14.9087C15.4399 11.542 15.8705 11.1114 15.8705 10.5803V9.61859C15.8705 9.08745 15.4399 8.65686 14.9087 8.65686H13.947ZM12.9853 14.4281C12.9853 13.897 13.4159 13.4664 13.947 13.4664H14.9087C15.4399 13.4664 15.8705 13.897 15.8705 14.4281V15.3898C15.8705 15.921 15.4399 16.3516 14.9087 16.3516H13.947C13.4159 16.3516 12.9853 15.921 12.9853 15.3898V14.4281ZM9.13795 13.4664C8.60682 13.4664 8.17623 13.897 8.17623 14.4281V15.3898C8.17623 15.921 8.60682 16.3516 9.13795 16.3516H10.0997C10.6308 16.3516 11.0614 15.921 11.0614 15.3898V14.4281C11.0614 13.897 10.6308 13.4664 10.0997 13.4664H9.13795ZM3.36671 14.4281C3.36671 13.897 3.7973 13.4664 4.32843 13.4664H5.29015C5.82129 13.4664 6.25188 13.897 6.25188 14.4281V15.3898C6.25188 15.921 5.82129 16.3516 5.29015 16.3516H4.32843C3.7973 16.3516 3.36671 15.921 3.36671 15.3898V14.4281Z" fill="white"/>
</svg>
