<svg width="23" height="20" viewBox="0 0 23 20" fill="none" xmlns="http://www.w3.org/2000/svg">
<path d="M21.8871 4.40696H20.5369L18.7786 0.631617C18.6005 0.244034 18.1999 0 17.7621 0H5.22395C4.78622 0 4.38559 0.244034 4.20753 0.631617L2.44922 4.40696H1.09895C-0.362605 4.43567 -0.370024 6.53867 1.09895 6.56738H1.44765C1.32894 6.88319 0.609292 8.17513 0.646387 8.51247V14.7856C0.646387 15.3813 1.14346 15.8622 1.75925 15.8622H1.83344V17.2331C1.95956 20.9223 7.48676 20.9223 7.61288 17.2331V15.8622H15.3732V17.2331C15.4919 20.9151 21.0265 20.9223 21.1452 17.2331V15.8622H21.2268C21.8426 15.8622 22.3397 15.3813 22.3397 14.7856V8.51247C22.3323 8.36174 22.3026 8.21102 22.2433 8.06747L21.5384 6.56738C22.2729 6.65351 23 6.25875 23 5.48358C23 4.89503 22.5029 4.40696 21.8871 4.40696ZM6.06972 12.7256H5.07556C3.61401 12.7041 3.61401 10.5939 5.07556 10.5724H6.06972C7.53127 10.5939 7.53127 12.7041 6.06972 12.7256ZM17.9105 12.7256H16.9164C15.4548 12.7041 15.4548 10.5939 16.9164 10.5724H17.9105C19.3721 10.5939 19.3721 12.7041 17.9105 12.7256ZM3.48047 7.43585L5.94359 2.15324H17.0425L19.4982 7.43585H3.48047Z" fill="white"/>
</svg>
