<svg width="23" height="23" viewBox="0 0 23 23" fill="none" xmlns="http://www.w3.org/2000/svg">
<path d="M8.78418 18.9297C9.8999 18.9298 10.8076 19.8384 10.8076 20.9541C10.8076 22.0698 9.90638 22.9784 8.78418 22.9785C7.66835 22.9785 6.75977 22.0699 6.75977 20.9541C6.75977 19.8383 7.66835 18.9297 8.78418 18.9297ZM16.8936 18.9297C18.0092 18.9299 18.917 19.8384 18.917 20.9541C18.917 22.0698 18.0157 22.9783 16.8936 22.9785C15.7777 22.9785 14.8691 22.0699 14.8691 20.9541C14.8691 19.8383 15.7777 18.9297 16.8936 18.9297ZM1.09668 0C1.89452 7.41758e-05 2.66663 0.285414 3.27637 0.797852C3.88613 1.31684 4.28823 2.03084 4.41797 2.82227L4.85254 5.4043H22.3164C22.3683 5.4043 22.4139 5.40402 22.4658 5.41699C22.5502 5.43645 22.6347 5.47579 22.7061 5.53418C22.7773 5.58606 22.8355 5.65727 22.8809 5.72852C22.9262 5.80628 22.9593 5.89037 22.9658 5.97461C22.9788 6.06543 22.9716 6.15039 22.9521 6.24121H22.9463L22.8223 6.75293L20.7529 15.0117C20.5713 15.7383 20.1499 16.3874 19.5596 16.8545C18.9692 17.3151 18.2359 17.5674 17.4834 17.5674H8.3623C7.56436 17.5674 6.79243 17.282 6.18262 16.7695C5.57294 16.2506 5.17081 15.5374 5.04102 14.7461L3.7168 6.75977L3.49023 5.41016L3.10059 3.04297C3.01627 2.56949 2.77039 2.14083 2.40723 1.83594C2.04393 1.52454 1.57612 1.35547 1.10254 1.35547H0.681641C0.499994 1.35547 0.33092 1.28404 0.201172 1.1543C0.071577 1.0246 3.04366e-05 0.856315 0 0.674805C0 0.493158 0.0714241 0.324432 0.201172 0.201172C0.330919 0.0779124 0.499646 0 0.674805 0H1.09668Z" fill="white"/>
</svg>
