<svg width="21" height="21" viewBox="0 0 21 21" fill="none" xmlns="http://www.w3.org/2000/svg">
<path d="M19.8793 7.88993H18.184C18.1539 7.88993 18.1277 7.87066 18.1188 7.8416C17.9583 7.30451 17.7416 6.78166 17.474 6.28701C17.4602 6.26137 17.4657 6.22928 17.4864 6.208L18.686 5.00885C18.8953 4.79956 18.8953 4.45894 18.686 4.24955L16.1668 1.73036C15.9575 1.52107 15.6168 1.52107 15.4075 1.73036L14.2084 2.92999C14.1871 2.95069 14.1545 2.95563 14.1294 2.94186C13.6347 2.67483 13.1119 2.45804 12.5748 2.29765C12.5456 2.28872 12.5264 2.26261 12.5264 2.23251V0.537093C12.5264 0.240913 12.2855 0 11.9894 0H8.42703C8.13085 0 7.88993 0.240913 7.88993 0.537093V2.23241C7.88993 2.26251 7.87018 2.28872 7.8416 2.29755C7.30451 2.45804 6.78118 2.67474 6.28701 2.94176C6.26137 2.95563 6.2288 2.95069 6.208 2.92989L5.00885 1.73026C4.79908 1.52097 4.45837 1.52097 4.24955 1.73026L1.73036 4.24955C1.52107 4.45884 1.52107 4.79946 1.73036 5.00885L2.92951 6.208C2.95078 6.22928 2.95572 6.26128 2.94186 6.28701C2.67483 6.78118 2.45756 7.30451 2.29708 7.8416C2.28872 7.87075 2.26251 7.88993 2.23241 7.88993H0.536618C0.240913 7.88993 0 8.13085 0 8.42703V11.9894C0 12.2855 0.240913 12.5264 0.536618 12.5264H2.23241C2.26251 12.5264 2.28872 12.5457 2.29708 12.5748C2.45756 13.1119 2.67474 13.6352 2.94186 14.1294C2.95572 14.155 2.95078 14.1871 2.92951 14.2084L1.73036 15.4075C1.52107 15.6168 1.52107 15.9574 1.73036 16.1668L4.24955 18.686C4.45837 18.8953 4.79899 18.8953 5.00885 18.686L6.208 17.4864C6.22871 17.4657 6.26128 17.4608 6.28701 17.4745C6.78118 17.7416 7.30451 17.9583 7.8416 18.1187C7.87028 18.1277 7.88993 18.1538 7.88993 18.1839V19.8791C7.88993 20.1753 8.13085 20.4162 8.42703 20.4162H11.9894C12.2855 20.4162 12.5264 20.1753 12.5264 19.8791V18.1839C12.5264 18.1538 12.5457 18.1276 12.5748 18.1187C13.1119 17.9583 13.6347 17.7416 14.1294 17.4745C14.1545 17.4607 14.1871 17.4656 14.2084 17.4864L15.4075 18.686C15.6168 18.8953 15.9575 18.8953 16.1668 18.686L18.686 16.1668C18.8953 15.9575 18.8953 15.6169 18.686 15.4075L17.4864 14.2084C17.4657 14.1871 17.4603 14.1551 17.474 14.1294C17.7416 13.6347 17.9583 13.1119 18.1188 12.5748C18.1278 12.5456 18.1539 12.5264 18.184 12.5264H19.8793C20.1755 12.5264 20.4164 12.2855 20.4164 11.9894V8.42703C20.4164 8.13085 20.1755 7.88993 19.8793 7.88993ZM14.8556 10.2082C14.8556 12.7709 12.7709 14.8561 10.2082 14.8561C7.64551 14.8561 5.56028 12.7708 5.56028 10.2082C5.56028 7.6456 7.6456 5.56028 10.2082 5.56028C12.7709 5.56028 14.8556 7.6456 14.8556 10.2082Z" fill="white"/>
</svg>
