<svg width="23" height="25" viewBox="0 0 23 25" fill="none" xmlns="http://www.w3.org/2000/svg">
<path d="M10.085 13.7263C10.2035 13.7264 10.2997 13.8227 10.2998 13.9412V23.8191C10.2996 23.9375 10.2034 24.0339 10.085 24.0339H5.14648C3.25558 24.0339 1.71289 22.4987 1.71289 20.6003V14.156C1.71314 13.9191 1.90565 13.7266 2.14258 13.7263H10.085ZM20.1768 13.7263C20.4139 13.7263 20.6072 13.9189 20.6074 14.156V20.6003C20.6074 22.4913 19.0722 24.0339 17.1738 24.0339H12.2354C12.1169 24.0339 12.0208 23.9375 12.0205 23.8191V13.9412C12.0206 13.8226 12.1168 13.7263 12.2354 13.7263H20.1768ZM11.1602 1.42456C12.3688 -0.0584142 14.4818 -0.436854 16.1279 0.541751C17.9669 1.62439 18.5754 3.99767 17.4854 5.83667C17.478 5.8515 17.4707 5.87371 17.4707 5.88843C17.4708 5.94022 17.515 5.99188 17.5742 5.99195H19.7471C21.1708 5.99197 22.3274 7.14146 22.3496 8.56519V9.42554C22.3495 10.5227 21.6603 11.4937 20.6299 11.8572C20.3556 11.9536 20.0661 12.0056 19.7695 12.0056H12.25C12.1314 12.0056 12.0352 11.9094 12.0352 11.7908V6.0066H14.1855C15.372 6.00658 16.3359 5.04265 16.3359 3.8562C16.3358 2.66984 15.3719 1.70583 14.1855 1.70581C12.9992 1.70581 12.0353 2.66983 12.0352 3.8562V6.0066H10.3145V11.7986C10.3142 11.9171 10.2181 12.0129 10.0996 12.0203H2.58008C2.28379 12.0202 1.9948 11.9691 1.7207 11.8728C0.689994 11.502 2.84767e-05 10.5302 0 9.44019V8.57984C5.7457e-05 7.15629 1.15658 6.00001 2.58008 5.99976H4.75293C4.77509 5.99976 4.78992 5.99152 4.80469 5.98413C4.84914 5.9545 4.87135 5.88856 4.8418 5.83667C3.86297 4.18305 4.24154 2.07662 5.72461 0.867923C7.37823 -0.474229 9.81057 -0.229046 11.1602 1.42456ZM8.00879 1.71363C6.88907 1.79519 6.0289 2.72965 6.02148 3.84937C6.01429 5.03556 6.97784 5.99223 8.16406 5.99976H10.3145V3.8562C10.3145 3.80446 10.315 3.75268 10.3076 3.70093C10.2186 2.52196 9.18774 1.62477 8.00879 1.71363Z" fill="white"/>
</svg>
