<svg width="22" height="21" viewBox="0 0 22 21" fill="currentColor"
    xmlns="http://www.w3.org/2000/svg">
    <path
        d="M12.1771 0.669776C11.2841 -0.223259 9.83655 -0.223259 8.94351 0.669776L0.367829 9.24546C-0.418641 10.0319 0.139714 11.3768 1.25198 11.3745L2.79384 11.3723V19.3192C2.79384 20.0018 3.3472 20.5546 4.02988 20.5546H8.22642V15.7864C8.22642 15.147 8.48562 14.5687 8.90411 14.1497C9.32315 13.7312 9.90149 13.472 10.5403 13.472C11.8185 13.472 12.8542 14.5082 12.8542 15.7864V20.5546H17.0513C17.734 20.5546 18.2874 20.0018 18.2874 19.3192V11.3473L19.8431 11.3446C20.9531 11.3429 21.5082 10.0003 20.7228 9.21549L12.1771 0.669776Z"
        fill="white" />
</svg>