<svg width="26" height="21" viewBox="0 0 26 21" fill="none" xmlns="http://www.w3.org/2000/svg">
<path d="M21.1339 18.9249C21.4208 18.9251 21.6534 19.1575 21.6534 19.4444V20.4523C21.6534 20.7391 21.4207 20.9716 21.1339 20.9718H5.17003C4.88315 20.9717 4.65056 20.7391 4.6505 20.4523V19.4444C4.65051 19.1575 4.88312 18.925 5.17003 18.9249H21.1339ZM13.1866 0.00010638C14.3726 -0.011579 15.3447 0.940917 15.3566 2.12706C15.3661 3.08085 14.7514 3.89602 13.8937 4.18468L18.3634 11.9259L22.5167 8.5294C22.022 8.14092 21.7013 7.53929 21.6944 6.86143C21.6825 5.67557 22.6346 4.70454 23.8204 4.69249C25.0064 4.68052 25.9775 5.63247 25.9894 6.81847C26.0012 8.00435 25.0493 8.97544 23.8634 8.98741C23.7683 8.98826 23.6742 8.98303 23.5821 8.97179L21.8351 16.8429C21.7282 17.3239 21.3133 17.6573 20.8204 17.6573H5.50597C5.01334 17.6572 4.59809 17.3238 4.49132 16.8429L2.72472 8.88097C2.54803 8.93015 2.36199 8.95706 2.17003 8.95909C0.984094 8.97092 0.0121845 8.01902 0.000106364 6.83311C-0.0115791 5.64697 0.941061 4.67531 2.12706 4.66319C3.31283 4.65145 4.28392 5.6033 4.296 6.78917C4.30235 7.4128 4.04198 7.97741 3.6212 8.37413L8.088 12.0275L12.6026 4.20909C11.7198 3.94957 11.0704 3.13782 11.0607 2.17003C11.0487 0.98418 12.0008 0.0123213 13.1866 0.00010638Z" fill="white"/>
</svg>
