<svg width="22" height="16" viewBox="0 0 22 16" fill="none" xmlns="http://www.w3.org/2000/svg">
<path d="M10.6178 0C13.4279 0 16.2383 0 19.0484 0.000169654C19.1502 0.000169654 19.2522 0.000169654 19.3538 0.00542894C19.5111 0.0134027 19.6261 0.0948369 19.6873 0.235311C19.744 0.365266 19.7058 0.489284 19.6176 0.595657C19.5615 0.663349 19.5023 0.729345 19.4388 0.790251C17.7394 2.4208 16.0413 4.05305 14.3378 5.67952C13.7488 6.24193 13.1518 6.79636 12.5469 7.3418C12.2958 7.56829 12.0203 7.76933 11.746 7.96816C11.4956 8.14952 11.2092 8.25691 10.9037 8.30815C10.3738 8.39705 9.88387 8.27642 9.45803 7.96443C9.10329 7.70469 8.76703 7.41543 8.44723 7.1131C7.07591 5.81711 5.71308 4.5123 4.34872 3.20901C3.47008 2.3699 2.59381 1.52842 1.71755 0.686761C1.66903 0.640106 1.6222 0.588362 1.58793 0.531019C1.45899 0.31437 1.57181 0.0593791 1.82188 0.0178137C1.95455 -0.00390205 2.09248 0.000848272 2.22804 0.000678618C3.91152 -0.000169655 5.59483 0.000169654 7.27831 0.000339309C8.39141 0.000339309 9.50469 0.000339309 10.6178 0.000339309V0Z" fill="white"/>
<path d="M8.49992 8.51794C9.82034 9.70705 11.4875 9.61951 12.7387 8.50098C12.7825 8.53643 12.8314 8.57053 12.874 8.61125C14.4595 10.1259 16.0445 11.6415 17.6297 13.1565C18.2481 13.7474 18.8675 14.3373 19.4854 14.9288C19.5439 14.985 19.603 15.0435 19.6479 15.1102C19.784 15.3126 19.6866 15.564 19.4491 15.6209C19.3712 15.6395 19.2874 15.638 19.2065 15.638C16.1444 15.6382 13.0823 15.637 10.0202 15.637C7.39937 15.637 4.77872 15.6382 2.1579 15.6387C2.06289 15.6387 1.96788 15.6375 1.87271 15.6358C1.7229 15.6331 1.61042 15.5662 1.54935 15.429C1.48573 15.2863 1.53815 15.1638 1.63502 15.0561C1.68948 14.9955 1.74716 14.9378 1.80603 14.8817C2.98055 13.7623 4.15558 12.6434 5.33027 11.5241C6.23944 10.6576 7.14794 9.79035 8.05763 8.92443C8.19946 8.78939 8.34604 8.65926 8.50009 8.51777L8.49992 8.51794Z" fill="white"/>
<path d="M7.68112 7.84139C7.5951 7.93148 7.51486 8.02224 7.42766 8.10588C6.037 9.44072 4.64651 10.7759 3.25348 12.1084C2.50785 12.8214 1.75763 13.5296 1.00844 14.2389C0.94957 14.2947 0.887137 14.3488 0.819445 14.3929C0.494047 14.6047 0.0726257 14.4147 0.0117197 14.029C0.000183227 13.9559 0.00187977 13.8802 0.00187977 13.8056C0.000861845 9.86859 0.000352881 5.93142 1.35724e-05 1.99425C1.35724e-05 1.90603 -0.000325737 1.81764 0.00238873 1.72959C0.00951422 1.4936 0.138282 1.34023 0.339662 1.23606C0.534595 1.13529 0.711035 1.18669 0.87102 1.30969C1.00522 1.41284 1.13483 1.52346 1.25698 1.64069C2.97134 3.28532 4.68434 4.93131 6.39701 6.5778C6.80791 6.97293 7.21695 7.37009 7.62615 7.76691C7.64481 7.78507 7.65771 7.80933 7.68112 7.84173V7.84139Z" fill="white"/>
<path d="M13.5566 7.84731C13.9109 7.508 14.2244 7.2089 14.5369 6.90861C15.9657 5.53458 17.3935 4.15953 18.8232 2.78651C19.2687 2.35864 19.7182 1.93451 20.1682 1.51139C20.257 1.42809 20.3506 1.34649 20.4534 1.28253C20.7975 1.06825 21.2135 1.28388 21.2459 1.68851C21.2496 1.73584 21.2486 1.78352 21.2486 1.83102C21.2467 5.8028 21.2447 9.77458 21.2425 13.7462C21.2425 13.8141 21.2452 13.8824 21.2389 13.9498C21.2182 14.1715 21.1047 14.332 20.9022 14.4218C20.7086 14.5076 20.5274 14.4677 20.3717 14.3318C20.1876 14.1712 20.0074 14.0058 19.8311 13.8366C18.6649 12.7183 17.5001 11.5987 16.3352 10.479C15.4495 9.62749 14.5644 8.77498 13.6781 7.92399C13.6493 7.89617 13.6092 7.88005 13.5568 7.84731H13.5566Z" fill="white"/>
</svg>
