<svg width="23" height="23" viewBox="0 0 23 23" fill="none" xmlns="http://www.w3.org/2000/svg">
<path d="M12.2267 0.0218093C16.0133 0.195641 19.4636 2.05254 21.526 5.25967C23.2125 7.89073 23.7056 11.7339 21.6385 14.2962C20.4466 15.7792 18.6457 16.4287 16.7746 16.5931C16.0375 16.6787 15.2492 16.7285 14.5465 16.9428C12.3891 17.6415 12.8897 19.0544 12.9038 20.8547C12.916 22.8962 10.7875 23.2041 9.18059 22.8834C6.03275 22.3329 3.24808 20.2402 1.60543 17.5215C0.125844 15.0616 -0.328275 12.031 0.231625 9.22074C1.37635 3.54157 6.42826 -0.321812 12.2139 0.0211355H12.2267V0.0218093ZM9.08424 2.86645C7.57029 2.64343 6.38446 4.17693 6.92482 5.59049C7.48068 7.10916 9.62258 7.34228 10.5133 6.01159C11.3286 4.81161 10.5315 3.06184 9.09637 2.8678L9.08424 2.86578V2.86645ZM14.4528 2.86173C12.48 2.64276 11.3838 5.05215 12.8607 6.38284C13.802 7.22842 15.4001 6.97912 15.989 5.84248C16.6506 4.61757 15.8623 3.02479 14.4656 2.86308L14.4535 2.86173H14.4528ZM5.00122 6.8821C3.53712 6.75408 2.43484 8.1252 2.89165 9.52933C3.30535 10.8566 4.90217 11.3519 6.00446 10.515C7.46249 9.40468 6.87361 7.05121 5.01335 6.88277L5.00189 6.88143L5.00122 6.8821ZM18.4651 6.8821C17.4086 6.76284 16.3858 7.53633 16.2626 8.60425C16.0341 10.4861 18.1376 11.6578 19.5889 10.4126C20.9001 9.24567 20.2344 7.06065 18.4772 6.88345L18.4658 6.8821H18.4651ZM5.66959 12.2736C3.66851 12.151 2.63495 14.5489 4.1644 15.8722C5.5052 16.9327 7.55816 15.984 7.47461 14.2309C7.44834 13.2425 6.68631 12.345 5.68105 12.2743H5.66892L5.66959 12.2736Z" fill="white"/>
</svg>
