<svg width="18" height="24" viewBox="0 0 18 24" fill="none" xmlns="http://www.w3.org/2000/svg">
<path d="M8.08998 22.7119L5.91518 23.8965C5.6488 24.0424 5.32243 24.0343 5.06459 23.8799C4.80682 23.7254 4.64285 23.442 4.64272 23.1416V18.7529C4.80604 18.71 4.96162 18.6417 5.11635 18.5645L8.08998 17.002V22.7119ZM12.7833 18.5645C12.938 18.6417 13.0928 18.71 13.256 18.7529V23.1416C13.2559 23.442 13.0929 23.7254 12.8351 23.8799C12.5773 24.0344 12.2509 24.0423 11.9845 23.8965L9.80971 22.7119V17.002L12.7833 18.5645ZM8.2267 0.437505C8.51909 -0.145887 9.48107 -0.145783 9.77358 0.437505L12.0861 5.12598L17.2697 5.87305C17.5876 5.92456 17.8625 6.14804 17.9572 6.45704C18.0603 6.77475 17.9744 7.10996 17.7423 7.3418L13.9943 10.9912L14.88 16.1436C14.9314 16.4611 14.8025 16.787 14.5363 16.9844C14.2785 17.1732 13.9175 17.2078 13.6339 17.0449L9.85952 15.0693L9.00014 14.6143L8.14077 15.0693L4.36733 17.0449C4.08373 17.1994 3.73144 17.1732 3.46499 16.9844C3.19865 16.787 3.0689 16.4611 3.12026 16.1436L4.006 10.9912L0.257954 7.3418C0.0259176 7.10996 -0.0600308 6.77471 0.0431102 6.45704C0.137673 6.14809 0.412745 5.92466 0.73061 5.87305L5.9142 5.12598L8.2267 0.437505Z" fill="white"/>
</svg>
