<svg width="24" height="24" viewBox="0 0 24 24" fill="none" xmlns="http://www.w3.org/2000/svg">
<path d="M1.75826 14.4061C1.65631 13.8502 2.20086 13.4665 2.70846 13.6551C2.99235 13.7571 3.1989 13.992 3.40279 14.1981C3.75885 14.5574 4.11267 14.9124 4.47311 15.2674L9.77975 20.574C10.0571 20.8415 10.3584 21.1397 10.309 21.576C10.286 21.941 9.95835 22.2055 9.59225 22.1727C9.14722 22.1453 8.90712 21.7897 8.61666 21.5135C8.47853 21.3863 8.33231 21.2226 8.13717 21.2039C7.83907 21.204 7.6396 21.4503 7.32174 21.4832C6.12363 21.7002 5.92817 20.449 5.31002 20.8016C4.94061 21.0943 4.64358 21.4576 4.2983 21.782C4.05602 22.0199 3.65242 22.3326 3.87936 22.7098C4.28367 23.4267 3.85584 24.1907 2.99752 23.8465C2.58321 23.6097 2.30569 23.2135 1.95162 22.8934C1.63941 22.5801 1.31181 22.2537 0.998498 21.9393C0.597245 21.4777 -0.145064 21.065 0.024865 20.3611L0.0287712 20.3445H0.0297478C0.112047 19.9642 0.521247 19.8363 0.867638 19.9207C1.10004 19.9657 1.30322 20.1619 1.5444 20.0994C1.87754 19.9941 2.07698 19.6593 2.33346 19.4324C2.5428 19.2286 2.75105 19.0203 2.95162 18.8143C3.31887 18.4942 3.21397 18.2068 2.89498 17.8944C2.47838 17.5402 2.28258 16.8439 2.52486 16.3133C2.64104 16.07 2.83425 15.8128 2.6274 15.5574C2.56716 15.4753 2.51852 15.4237 2.45065 15.3504C2.18646 15.0621 1.82519 14.8357 1.75826 14.4061ZM20.894 13.825C21.6779 13.1902 22.5837 14.0567 21.938 14.8504C21.7976 15.0137 21.6461 15.1551 21.4926 15.3074C21.4017 15.4006 21.3105 15.4968 21.2436 15.6053C21.1 15.8235 21.2382 16.0465 21.3501 16.2537C21.4706 16.5047 21.5139 16.8084 21.4624 17.0867C21.3955 17.4912 21.1876 17.7167 20.9399 17.9666C20.6231 18.2944 20.6578 18.5645 20.9878 18.8485C21.1904 19.0588 21.4051 19.2681 21.6176 19.4774C21.8303 19.6735 21.9992 19.9159 22.2534 20.0584C22.5614 20.2283 22.8336 19.9175 23.145 19.9022C23.6898 19.8178 24.0065 20.2835 23.8794 20.7889L23.8755 20.8055L23.8735 20.8065C23.6903 21.2898 23.2079 21.5857 22.8725 21.9715C22.3441 22.4988 21.802 23.0432 21.2758 23.5672C20.5841 24.3006 19.5469 23.8614 19.9624 22.8309C20.2854 22.3421 19.8976 22.0724 19.5688 21.7469C19.3364 21.521 19.1244 21.2934 18.893 21.0731C18.5126 20.6444 18.2729 20.6223 17.8608 21.0399C17.5978 21.3095 17.3104 21.4725 16.9126 21.4988C16.6725 21.5175 16.429 21.4661 16.2153 21.3631C15.9642 21.2107 15.7109 21.1147 15.4741 21.3416C15.1606 21.5861 14.9455 21.9508 14.5717 22.1131C13.8251 22.4102 13.3024 21.6216 13.7387 20.9988C13.9107 20.7482 14.1418 20.5599 14.352 20.3475C14.5427 20.1535 14.723 19.9602 14.9213 19.7772C15.5846 19.1106 16.2449 18.4447 16.9126 17.7869C17.6799 17.0086 18.4537 16.2508 19.2221 15.4725C19.5926 15.1085 19.9604 14.732 20.3364 14.367C20.5206 14.185 20.6879 13.984 20.894 13.825ZM23.4624 0.706852C23.5709 0.616954 23.6802 0.533071 23.7602 0.613102L23.7661 0.620915V0.618962C23.9107 0.920441 23.6819 1.32804 23.6303 1.64924C23.4527 2.24558 23.3072 2.93078 23.145 3.50959C22.8687 4.52916 22.6113 5.56897 22.3383 6.58088C22.2353 6.92834 22.1802 7.31319 22.0005 7.62775C21.8086 7.90395 21.4926 8.07298 21.2602 8.30646C20.5499 8.88963 19.8702 9.47818 19.1665 10.0613C17.7588 11.2289 16.3753 12.4075 14.9731 13.575C13.1697 15.0836 11.3842 16.5902 9.58737 18.0965C9.28935 18.3092 9.04138 18.6668 8.67428 18.7567C8.35431 18.8112 8.11007 18.5267 7.91061 18.3162C7.6552 18.0378 7.36294 17.8006 7.11959 17.5145C6.89375 17.281 7.15855 17.0406 7.33834 16.8641C7.54663 16.6503 7.78031 16.4442 7.98092 16.2205C8.4227 15.7777 8.87092 15.342 9.30612 14.8914C12.4733 11.722 15.6407 8.54849 18.7915 5.38459C19.9743 4.21599 21.1265 3.02975 22.3159 1.86115C22.6075 1.54322 22.928 1.25904 23.2251 0.942204C23.3126 0.852477 23.3727 0.79104 23.4624 0.706852ZM15.935 13.2469C16.1422 13.0605 16.4159 12.7659 16.7251 12.8514L16.7378 12.8553L16.7397 12.8543C16.8679 12.8959 16.9758 13.0067 17.0678 13.1053C17.2871 13.3147 17.4758 13.5794 17.6743 13.8162C17.8539 14.0123 18.0028 14.205 18.1704 14.4119C18.3852 14.6848 18.7716 14.9922 18.7182 15.3856C18.6875 15.5522 18.5512 15.6776 18.435 15.7938C18.2466 15.9768 18.0526 16.1543 17.8784 16.3504C17.1362 17.0882 16.3922 17.8325 15.6577 18.5779C15.2455 19.0231 14.7405 18.521 14.4204 18.2195C14.1913 18.031 13.9556 17.8458 13.7397 17.6463C13.4854 17.449 13.2497 17.2417 13.0063 17.0301C12.7685 16.8394 12.4236 16.636 12.4946 16.282C12.5626 15.9433 12.9221 15.8186 13.1479 15.5916C13.412 15.3309 13.7189 15.1366 13.9819 14.8758C14.315 14.6161 14.6122 14.3645 14.9321 14.1004C15.1337 13.9536 15.2938 13.7766 15.4878 13.6111C15.6357 13.4884 15.7915 13.3751 15.935 13.2469ZM22.853 0.144352C22.9835 0.102692 23.2197 0.0806646 23.3042 0.154118L23.312 0.160954L23.309 0.159001C23.4307 0.277403 23.1988 0.475509 23.0991 0.581852C22.8415 0.824125 22.5955 1.07922 22.351 1.32697C22.1636 1.50127 21.9704 1.69773 21.7983 1.8797C21.5813 2.09232 21.3414 2.31923 21.1342 2.54279C20.6388 3.02512 20.1473 3.52251 19.6606 4.01252C19.4841 4.17368 19.3055 4.36309 19.1411 4.53302C18.9438 4.73026 18.7303 4.92213 18.5385 5.13361C18.2897 5.38357 18.0153 5.64026 17.7719 5.90119C17.567 6.09629 17.343 6.31513 17.1479 6.52228C16.9517 6.71849 16.737 6.91156 16.5473 7.12091C16.2974 7.37197 16.023 7.62867 15.7807 7.88849C15.5747 8.08578 15.3496 8.30353 15.1567 8.50959C14.9605 8.70692 14.7416 8.90394 14.5542 9.11115C14.3196 9.34899 14.0544 9.59122 13.8286 9.83673C13.6104 10.0505 13.3685 10.2784 13.1635 10.4998C12.9674 10.6971 12.7484 10.8933 12.561 11.1004C12.3473 11.3217 12.1063 11.5323 11.8969 11.7635C11.6701 11.9947 11.41 12.2297 11.1919 12.4686C10.989 12.6747 10.763 12.8758 10.5678 13.0906C10.3409 13.3219 10.0809 13.5568 9.86276 13.7957C9.58219 14.0653 9.30338 14.3489 9.03268 14.6229C8.85738 14.7839 8.69679 14.9521 8.53463 15.1219C8.33841 15.3214 8.12076 15.512 7.93112 15.7225C7.70752 15.9548 7.44551 16.1873 7.22408 16.4295C7.00043 16.6312 6.69755 17.0865 6.38619 16.7938C6.10894 16.5559 5.87661 16.272 5.60592 16.0233C5.39433 15.8248 5.11165 15.5776 5.16647 15.2586C5.23348 14.9825 5.48235 14.7688 5.65768 14.5496C5.86047 14.2975 6.07624 14.0374 6.28561 13.8006C6.55086 13.4554 6.84958 13.1445 7.11373 12.8026C7.30449 12.6019 7.49484 12.3631 7.67135 12.1395C7.8445 11.9521 8.02405 11.7416 8.18404 11.5301C8.29039 11.3931 8.42171 11.2781 8.53463 11.1444C8.70878 10.922 8.87402 10.6864 9.07662 10.4881C9.46033 9.99805 9.86947 9.5208 10.2729 9.05158C10.6446 8.58564 11.0337 8.14229 11.4174 7.68732C11.8471 7.14474 12.3268 6.63112 12.7456 6.07209C12.9999 5.81228 13.2135 5.55385 13.4448 5.25568C13.9764 4.63857 14.4937 4.00706 15.0122 3.38556C15.2994 3.05559 15.5783 2.70407 15.8667 2.38068C15.9982 2.21405 16.1331 2.02191 16.3227 1.909C16.5967 1.76 16.9158 1.70652 17.2172 1.61994C17.6019 1.51364 17.9657 1.40731 18.3745 1.31525C19.2219 1.10695 20.0645 0.857296 20.9174 0.651188C21.552 0.494462 22.2272 0.312032 22.853 0.144352ZM0.57174 0.0173992L0.589318 0.0203289C2.13054 0.417145 3.67846 0.825562 5.21529 1.23224C5.89721 1.39998 6.57438 1.57835 7.24752 1.77131C7.42275 1.82716 7.59182 1.87887 7.73092 2.00373C8.10894 2.36872 8.42251 2.83101 8.77975 3.22443C9.26207 3.8098 9.76224 4.38518 10.2358 4.97931C10.5416 5.31798 10.7989 5.69124 11.1167 6.01349C11.4828 6.38734 11.6971 6.86022 11.2739 7.28888C10.7729 7.88851 10.2707 8.47626 9.77194 9.08576C9.2052 9.72925 8.68429 10.4013 8.1274 11.0535C7.99264 11.2299 7.83272 11.3975 7.69576 11.5662C7.46115 11.8765 7.15056 12.1125 6.78658 11.8143C5.78126 10.957 4.7515 10.1136 3.74947 9.25959C3.30667 8.89131 2.85429 8.51834 2.42135 8.1424C2.23834 7.99117 2.02682 7.84334 1.90182 7.6297C1.66066 7.12218 1.57647 6.53465 1.40768 6.0008C1.17639 5.01315 0.901728 4.05034 0.643029 3.06818C0.498337 2.41488 0.296005 1.76019 0.138146 1.11017C1.00061e-05 0.640948 -0.218706 -0.125122 0.57174 0.0173992Z" fill="white"/>
</svg>
