<svg width="27" height="15" viewBox="0 0 27 15" fill="none" xmlns="http://www.w3.org/2000/svg">
<path d="M5.49384 2.7694C5.49384 2.7694 10.3764 0.167683 11.1677 0.45885C11.4309 0.546585 11.7533 0.751206 12.1042 0.955921C11.9288 1.01439 11.7533 1.10267 11.6071 1.21959L9.50068 2.7401C9.06205 3.06179 8.77001 3.50085 8.65302 4.02721L7.98017 6.98131C7.92172 7.21526 8.03914 7.4493 8.24384 7.56627C8.30353 7.59618 8.68354 7.79989 9.26728 7.85826C9.85225 7.91671 10.9925 7.77067 11.8698 6.36705C11.8991 6.36705 11.8991 6.33776 11.8991 6.33776L12.3669 5.4608L13.5075 4.90514L18.6257 9.08678C18.7134 9.23296 18.7134 9.40844 18.655 9.58385C18.4795 9.96406 18.3041 10.2865 18.1286 10.6083C18.0114 10.8126 17.6897 10.8705 17.5143 10.6952L15.2331 8.6776C15.0869 8.53154 14.8823 8.56078 14.7653 8.73619C14.6777 8.88234 14.7071 9.05764 14.8239 9.14537L17.1638 11.2225C17.3098 11.3395 17.3393 11.5442 17.2517 11.7196C17.2225 11.778 17.1928 11.836 17.1345 11.8944C16.9005 12.1576 16.6369 12.3625 16.3737 12.5672C16.1983 12.6841 15.9642 12.6841 15.7888 12.538L13.362 10.4032C13.2158 10.257 13.0102 10.2863 12.8933 10.4618C12.8058 10.6078 12.8352 10.7832 12.9518 10.871L15.1462 12.8602C15.2918 12.9773 15.2627 13.2109 15.0876 13.2987C14.8244 13.4157 14.59 13.5322 14.3268 13.62C14.1222 13.6784 13.8881 13.6498 13.7419 13.5038L11.8112 11.8358C11.6651 11.69 11.4604 11.7192 11.3434 11.8944C11.2557 12.0406 11.2851 12.2168 11.402 12.3046L12.8933 13.62C12.8933 13.62 13.1569 13.9424 12.572 14.0594H12.5427C12.4551 14.0595 12.3383 14.0877 12.2507 14.0878H12.2214C12.1336 14.0878 12.0162 14.1171 11.9284 14.1171C11.8701 14.1462 11.7828 14.1464 11.7243 14.1464H11.4899C11.3439 14.1464 11.227 14.1175 11.1393 14.0301L3.91474 7.71276L5.49384 2.7694ZM2.42353 1.10241C2.51132 0.780905 2.86172 0.605785 3.18329 0.722522L4.76337 1.30748C5.05549 1.39535 5.23065 1.74569 5.14325 2.03795L2.68622 9.49596C2.56928 9.81755 2.24805 9.99353 1.92646 9.87682L0.404972 9.35045C0.0833943 9.26263 -0.0626334 8.94066 0.0250894 8.61901L2.42353 1.10241ZM23.7438 0.0203739C24.0655 -0.0673407 24.3874 0.1373 24.4753 0.45885L26.2888 8.35534C26.3765 8.67698 26.1719 8.99888 25.8503 9.05748L24.1833 9.43834C23.8616 9.52608 23.5689 9.32061 23.4811 8.99889L21.697 1.161C21.6093 0.868623 21.8138 0.546692 22.1061 0.45885L23.7438 0.0203739ZM22.5163 7.56627L20.4977 8.35534L19.4743 9.02819L13.5954 4.26158L11.987 5.02135L11.4313 6.07408C10.7588 7.15607 9.94003 7.36101 9.32587 7.3026C8.83096 7.24438 8.50947 7.0708 8.50653 7.0692L9.15009 4.1444C9.23782 3.735 9.472 3.38423 9.79364 3.15026L11.8991 1.62877C12.2208 1.39485 12.6303 1.2783 13.0104 1.30748H13.0983L16.3151 1.71666C17.5991 1.86257 18.8544 1.68815 18.8601 1.68737L21.0827 1.21959L22.5163 7.56627ZM1.45771 8.00475C1.22407 8.00497 1.0487 8.18027 1.04853 8.41393C1.04853 8.64776 1.22395 8.82386 1.45771 8.82409C1.69168 8.82409 1.86786 8.6479 1.86786 8.41393C1.86769 8.18012 1.69157 8.00475 1.45771 8.00475Z" fill="white"/>
</svg>
