<svg width="18" height="23" viewBox="0 0 18 23" fill="none" xmlns="http://www.w3.org/2000/svg">
<path fill-rule="evenodd" clip-rule="evenodd" d="M5.32063 10.0384C-3.81855 13.9527 -0.260027 23 9.00013 23C18.2603 23 21.8188 13.9527 12.6796 10.0384C10.9331 11.7111 10.2654 12.5912 9.77969 13.8699L9.26756 12.8724L9.94252 12.1007C10.0362 11.9933 10.0362 11.8185 9.94252 11.7121C9.72966 11.4681 9.17478 10.7455 9.00104 10.7346C11.9019 10.7337 14.2542 8.33104 14.2542 5.36776C14.2542 2.40448 11.9019 0 9.00013 0C6.09837 0 3.74604 2.40357 3.74604 5.36685C3.74604 8.33013 6.08746 10.721 8.9783 10.7328C8.92008 10.7355 8.86186 10.7619 8.8182 10.8129L8.03318 11.7111C7.93949 11.8176 7.93949 11.9933 8.03318 12.0998L8.70814 12.8715L8.29425 13.6779C7.78667 12.3336 6.98436 11.3216 5.32063 10.0384Z" fill="white"/>
</svg>
